<?xml version="1.0" encoding="iso-8859-1"?>
<!-- Generator: Adobe Illustrator 19.0.0, SVG Export Plug-In . SVG Version: 6.00 Build 0)  -->
<svg version="1.1" id="Capa_1" xmlns="http://www.w3.org/2000/svg" xmlns:xlink="http://www.w3.org/1999/xlink" x="0px" y="0px"
	 viewBox="0 0 504.2 504.2" style="enable-background:new 0 0 504.2 504.2;" xml:space="preserve">
<circle style="fill:#2AA0DA;" cx="252.1" cy="252.1" r="252.1"/>
<g>
	<path style="fill:#183651;" d="M255.3,471.1c-120.5,0-219-98.5-219-219s98.5-219,219-219s219,98.5,219,219h-15.8
		c0-111.9-91.4-203.2-203.2-203.2c-111.9,0-202.5,91.3-202.5,203.2S144.2,455.3,256,455.3v15.8H255.3z"/>
	<path style="fill:#183651;" d="M255.3,410.4C167.9,410.4,97,339.5,97,252.1h15.8c0,78.8,63.8,142.6,142.6,142.6
		s142.4-63.8,142.4-142.6S334,109.5,255.2,109.5V93.8c87.4,0,158.3,70.9,158.3,158.3C414.4,339.5,342.7,410.4,255.3,410.4z"/>
	<path style="fill:#183651;" d="M255.3,350.6c-54.4,0-98.5-44.1-98.5-98.5s44.1-98.5,98.5-98.5s98.5,44.1,98.5,98.5H338
		c0-45.7-37-82.7-82.7-82.7s-82.7,37-82.7,82.7s37.8,82.7,82.7,82.7V350.6z"/>
</g>
<circle style="fill:#FFFFFF;" cx="255.3" cy="252.1" r="35.4"/>
<path style="fill:#183651;" d="M255.3,295.4c-23.6,0-43.3-19.7-43.3-43.3s19.7-43.3,43.3-43.3s43.3,19.7,43.3,43.3
	S279.7,295.4,255.3,295.4z M255.3,224.5c-15,0-27.6,12.6-27.6,27.6s12.6,27.6,27.6,27.6s27.6-12.6,27.6-27.6S271,224.5,255.3,224.5z
	"/>
<circle style="fill:#FFFFFF;" cx="44.9" cy="252.1" r="27.6"/>
<path style="fill:#183651;" d="M44.9,287.5c-19.7,0-35.4-15.8-35.4-35.4s15.8-35.4,35.4-35.4s35.4,15.8,35.4,35.4
	S63.8,287.5,44.9,287.5z M44.9,232.4c-11,0-19.7,8.7-19.7,19.7s8.7,19.7,19.7,19.7s19.7-8.7,19.7-19.7S55.2,232.4,44.9,232.4z"/>
<circle style="fill:#FFFFFF;" cx="434.8" cy="139.5" r="27.6"/>
<path style="fill:#183651;" d="M434.8,174.9c-19.7,0-35.4-15.8-35.4-35.4s15.8-35.4,35.4-35.4c19.7,0,35.4,15.8,35.4,35.4
	C470.3,158.4,454.5,174.9,434.8,174.9z M434.8,119.8c-11,0-19.7,8.7-19.7,19.7s8.7,19.7,19.7,19.7s19.7-8.7,19.7-19.7
	S445.1,119.8,434.8,119.8z"/>
<circle style="fill:#FFFFFF;" cx="364.7" cy="354.5" r="27.6"/>
<path style="fill:#183651;" d="M364.7,389.9c-19.7,0-35.4-15.8-35.4-35.4c0-19.7,15.8-35.4,35.4-35.4c19.7,0,35.4,15.8,35.4,35.4
	C400.2,374.2,384.4,389.9,364.7,389.9z M364.7,334.8c-11,0-19.7,8.7-19.7,19.7s8.7,19.7,19.7,19.7s19.7-8.7,19.7-19.7
	S375.8,334.8,364.7,334.8z"/>
<circle style="fill:#FFFFFF;" cx="198.5" cy="184.4" r="27.6"/>
<g>
	<path style="fill:#183651;" d="M198.5,219.8c-19.7,0-35.4-15.8-35.4-35.4s15.8-35.4,35.4-35.4s35.4,15.8,35.4,35.4
		S218.2,219.8,198.5,219.8z M198.5,164.7c-11,0-19.7,8.7-19.7,19.7s8.7,19.7,19.7,19.7s19.7-8.7,19.7-19.7
		C218.2,173.3,209.6,164.7,198.5,164.7z"/>
	<path style="fill:#183651;" d="M256,471.1v-15.8c4.7,0,10.2,0,15-0.8l1.6,15.8C267.1,470.3,261.6,471.1,256,471.1z"/>
	<path style="fill:#183651;" d="M288.3,468.7l-2.4-15.8c4.7-0.8,10.2-1.6,15-3.2l3.2,15C299.4,466.4,293.8,467.9,288.3,468.7z"/>
	<path style="fill:#183651;" d="M320.6,460.8l-4.7-15c4.7-1.6,9.5-3.2,14.2-4.7l5.5,15C330.9,457.7,325.4,459.3,320.6,460.8z"/>
	<path style="fill:#183651;" d="M350.6,449l-7.1-14.2c4.7-2.4,8.7-4.7,13.4-7.1l7.9,13.4C360.8,444.3,356.1,446.7,350.6,449z"/>
	<path style="fill:#183651;" d="M378.9,432.5l-8.7-12.6c3.9-3.2,7.9-5.5,11.8-8.7l10.2,12.6C387.6,426.2,383.6,429.3,378.9,432.5z"
		/>
	<path style="fill:#183651;" d="M404.1,412l-11-11.8c3.9-3.2,7.1-7.1,11-11l11.8,11C412,404.9,408.9,408.9,404.1,412z"/>
	<path style="fill:#183651;" d="M427,388.4l-12.6-9.5c3.2-3.9,6.3-7.9,8.7-11.8l13.4,8.7C433.3,379.7,430.1,384.4,427,388.4z"/>
	<path style="fill:#183651;" d="M445.1,361.6l-13.4-7.9c2.4-4.7,4.7-8.7,7.1-13.4l14.2,7.1C450.6,352.1,447.4,356.9,445.1,361.6z"/>
	<path style="fill:#183651;" d="M459.3,331.7l-15-5.5c1.6-4.7,3.2-9.5,4.7-14.2l15,4.7C463.2,321.4,461.6,326.9,459.3,331.7z"/>
	<path style="fill:#183651;" d="M468.7,300.9l-15.8-3.2c0.8-4.7,2.4-10.2,3.2-15l15.8,2.4C471.1,289.9,470.3,295.4,468.7,300.9z"/>
	<path style="fill:#183651;" d="M115.8,221.4l-15.8-3.2c0.8-5.5,2.4-11,3.9-15.8l15,4.7C118.2,211.9,116.6,216.7,115.8,221.4z"/>
	<path style="fill:#183651;" d="M125.3,193l-14.2-6.3c2.4-4.7,4.7-10.2,7.9-15l13.4,7.9C129.2,184.4,126.9,189.1,125.3,193z"/>
	<path style="fill:#183651;" d="M140.2,167.8l-12.6-9.5c3.2-4.7,7.1-8.7,10.2-12.6l11.8,10.2C146.5,159.9,142.6,163.9,140.2,167.8z"
		/>
	<path style="fill:#183651;" d="M159.9,145.8L149.7,134c3.9-3.9,8.7-7.1,12.6-10.2l9.5,12.6C167.8,138.7,163.9,141.8,159.9,145.8z"
		/>
	<path style="fill:#183651;" d="M184.4,127.6l-7.9-13.4c4.7-2.4,9.5-5.5,15-7.9l6.3,14.2C193,122.9,188.3,125.3,184.4,127.6z"/>
	<path style="fill:#183651;" d="M211.1,115.8l-4.7-15c5.5-1.6,11-3.2,15.8-3.9l3.2,15.8C221.4,113.5,215.9,114.3,211.1,115.8z"/>
	<path style="fill:#183651;" d="M289.1,345l-5.5-15c4.7-1.6,8.7-3.9,12.6-6.3l7.9,13.4C300.1,340.3,294.6,342.7,289.1,345z"/>
	<path style="fill:#183651;" d="M319.1,327.7l-10.2-11.8c3.9-3.2,7.1-6.3,10.2-10.2l11.8,10.2C326.9,319.8,323,323.8,319.1,327.7z"
		/>
	<path style="fill:#183651;" d="M341.1,301.7l-13.4-7.9c2.4-3.9,4.7-8.7,6.3-13.4l15,5.5C345.8,291.5,343.5,297,341.1,301.7z"/>
</g>
<g>
</g>
<g>
</g>
<g>
</g>
<g>
</g>
<g>
</g>
<g>
</g>
<g>
</g>
<g>
</g>
<g>
</g>
<g>
</g>
<g>
</g>
<g>
</g>
<g>
</g>
<g>
</g>
<g>
</g>
</svg>
